<?xml version="1.0" encoding="UTF-8" standalone="no"?>
<!DOCTYPE svg PUBLIC "-//W3C//DTD SVG 1.1//EN" "http://www.w3.org/Graphics/SVG/1.1/DTD/svg11.dtd">
<svg width="100%" height="100%" viewBox="0 0 6250 6250" version="1.1" xmlns="http://www.w3.org/2000/svg" xmlns:xlink="http://www.w3.org/1999/xlink" xml:space="preserve" xmlns:serif="http://www.serif.com/" style="fill-rule:evenodd;clip-rule:evenodd;stroke-linejoin:round;stroke-miterlimit:2;">
  <g>
    <g>
      <path d="M4710.586,2728.899c300.827,150.332 677.092,365.364 762.887,730.727c86.013,333.259 139.866,1708.919 -96.642,2063.436c-193.338,247.191 -816.795,258.038 -1676.541,258.038l-161.179,0c-172.08,0 -365.364,21.53 -569.767,43.006c-96.696,107.325 -225.716,193.338 -408.425,193.338c-85.795,0 -171.808,-43.006 -257.82,-96.642c-182.709,21.476 -279.351,32.159 -343.888,32.159c-10.847,0 -43.006,43.006 -64.482,64.482c-53.908,64.537 -129.019,161.179 -268.722,193.556c-32.159,10.629 -53.635,10.629 -86.013,10.629c-150.55,0 -311.728,-75.166 -429.901,-161.179c-150.55,-118.172 -236.344,-268.667 -247.191,-418.999c0,-139.921 43.006,-258.093 150.55,-354.735c182.655,-172.026 494.383,-204.185 655.562,-182.709l43.006,0c-21.476,-32.323 -32.377,-64.482 -43.006,-86.013c0,-2.126 -4.47,-15.753 -12.319,-39.136c-69.006,-206.583 -393.49,-1177.253 -84.323,-1766.424c182.655,-365.364 827.369,-730.727 1235.794,-784.581c10.847,-64.537 43.006,-128.856 96.86,-171.862l0,-43.006c0,-32.323 0,-53.853 -10.847,-86.013c-10.683,-64.482 -43.006,-139.648 -64.537,-225.661c-86.013,-247.246 -182.655,-548.073 -182.655,-881.277c0,-601.926 376.211,-988.82 956.606,-988.82c580.232,-0 956.443,386.894 956.443,988.82c0,333.204 -118.172,644.715 -215.032,881.277c53.853,0 107.543,21.476 161.397,53.635c107.325,75.384 171.808,182.709 171.808,311.728c0,96.642 -32.159,172.026 -75.166,225.661c53.69,64.537 96.696,139.703 107.543,236.563Zm-483.754,-1719.766c0,-429.846 -225.716,-666.191 -634.086,-666.191c-408.37,0 -644.715,247.191 -644.715,677.092c0,290.198 85.795,558.92 161.179,784.581c32.159,75.166 53.635,161.179 75.166,236.344c10.629,32.377 21.476,64.537 21.476,96.696c107.543,0 214.869,43.006 354.735,129.019c96.696,-86.013 236.344,-182.709 376.047,-257.875c21.476,-43.006 42.952,-96.86 64.482,-150.495c96.642,-215.087 225.716,-537.444 225.716,-849.172Zm-1870.098,4535.405c53.908,53.908 118.39,107.543 193.556,107.543c43.006,0 118.172,-64.482 204.185,-172.026c343.888,-419.054 913.437,-1525.992 1031.827,-1741.078c0,0 193.284,-440.53 225.661,-505.012c32.105,-64.537 236.344,-161.179 333.041,-236.563l32.377,-32.159c53.635,-64.482 32.105,-139.648 32.105,-139.648l0,-32.377c-10.629,-85.795 -96.642,-182.709 -139.648,-214.869c-43.006,-43.006 -150.55,-43.006 -150.55,-43.006c0,0 10.847,-10.629 32.377,-21.476c32.159,-32.159 86.013,-64.537 118.172,-86.013c53.853,-32.159 161.179,-96.696 75.166,-161.179c0,-10.683 -10.629,-10.683 -21.312,-10.683l-32.323,0c-10.683,0 -21.53,10.683 -32.159,10.683l-10.901,0c-64.482,21.476 -150.277,75.166 -236.344,129.019c-107.489,75.166 -215.032,150.332 -279.514,204.185c0,10.629 -10.683,10.629 -21.53,21.53c-10.629,10.629 -21.476,10.629 -21.476,21.476c-21.53,21.53 -43.061,32.159 -64.319,32.159c-43.006,0 -96.86,-43.006 -150.55,-75.166c-53.853,-43.006 -172.026,-107.543 -247.191,-118.172l-43.006,0c-21.53,10.629 -43.006,21.53 -43.006,32.159c-21.53,32.159 -10.629,75.166 10.847,96.642c10.629,21.53 32.159,32.377 32.159,32.377c86.013,32.159 182.655,107.543 257.82,182.709c75.384,86.013 118.39,214.814 96.914,268.667c-32.377,86.013 -150.55,322.357 -161.179,333.259c-118.39,214.814 -279.569,494.165 -419.272,741.356l-182.655,311.728l-43.006,75.384c0,10.629 -10.683,21.258 -10.683,21.258l-10.847,10.901c0,10.629 -10.629,10.629 -21.476,21.476c-10.683,10.629 -21.53,10.629 -21.53,10.629l-43.006,0c0,-10.629 -10.629,-10.629 -10.629,-10.629c-32.377,-21.476 -53.908,-53.635 -64.537,-86.013c0,-10.629 -10.847,-10.629 -10.847,-21.53c-96.696,-257.82 -247.191,-687.721 -182.709,-806.111c86.013,-182.655 236.563,0 236.563,0l53.69,193.556l32.323,118.172l96.696,-182.655l32.159,-53.69c96.86,-172.026 193.502,-343.833 268.667,-494.383c0,-10.847 10.847,-21.53 21.53,-32.377c21.476,-32.159 64.482,-118.172 107.489,-182.655c-10.847,0 -10.847,-10.683 -10.847,-10.683c-32.159,-32.377 -289.98,-258.038 -322.357,-300.827c-300.827,32.159 -891.906,354.517 -1020.925,612.555c-204.185,386.894 -32.159,1106.993 75.166,1418.666c21.476,42.843 32.323,85.849 43.006,107.325c0,2.78 0.218,5.56 0.6,7.904c3.216,8.067 6.595,16.134 10.247,24.474c-2.78,-5.342 -5.342,-10.029 -7.904,-14.499c3.87,11.501 11.283,21.312 18.533,35.975c30.47,70.914 60.885,160.961 91.137,215.904c5.56,2.78 5.56,9.811 5.56,9.811l10.847,10.629l10.629,10.901c0,10.629 10.847,21.476 10.847,21.476c21.53,21.53 32.159,42.788 43.006,64.319c32.159,32.323 96.696,172.026 193.338,268.667Zm1332.708,-139.648c354.626,10.847 1311.341,10.847 1429.513,-129.019c118.172,-139.703 139.703,-1343.337 32.159,-1762.554c-53.635,-204.185 -290.198,-354.517 -515.913,-472.907c-32.159,53.853 -85.795,107.543 -139.648,150.55c-53.69,43.006 -107.543,75.166 -161.179,107.489l-96.696,64.537c-53.853,118.172 -161.179,365.364 -193.611,429.901c-107.434,322.357 -257.766,634.086 -537.335,1106.938c429.901,-53.853 763.105,-107.489 763.105,-107.489c53.853,-10.683 107.543,32.159 118.172,86.013c10.847,53.635 -32.159,107.489 -85.795,118.172c0,0 -430.119,53.635 -935.185,129.019c-53.635,86.013 -107.489,171.808 -161.179,268.722c0,9.757 0,19.568 -8.285,21.258c117.3,-10.629 223.971,-10.629 320.013,-10.629l171.862,0Zm-2052.807,376.211c53.908,-75.384 150.55,-193.502 322.575,-182.655l21.53,0c-53.853,-64.537 -107.543,-139.703 -139.921,-204.185c-161.179,21.476 -204.185,21.476 -236.29,10.629c-118.172,-10.629 -300.881,21.476 -386.894,96.642c-32.377,21.53 -43.006,53.908 -43.006,96.914c0,53.635 43.006,118.172 118.172,171.808c96.642,86.013 215.032,107.543 247.191,96.86c32.377,-10.847 53.853,-43.006 96.642,-86.013Z" style="fill:#003c71;"/>
    </g>
  </g>
</svg>

