<?xml version="1.0" encoding="UTF-8" standalone="no"?>
<!DOCTYPE svg PUBLIC "-//W3C//DTD SVG 1.1//EN" "http://www.w3.org/Graphics/SVG/1.1/DTD/svg11.dtd">
<svg width="100%" height="100%" viewBox="0 0 1500 1500" version="1.1" xmlns="http://www.w3.org/2000/svg" xmlns:xlink="http://www.w3.org/1999/xlink" xml:space="preserve" xmlns:serif="http://www.serif.com/" style="fill-rule:evenodd;clip-rule:evenodd;stroke-linejoin:round;stroke-miterlimit:2;">
    <g transform="matrix(1.098483,0,0,1.098483,-61.370833,-74.447839)">
        <g transform="matrix(9.336284,0,0,9.336284,-329.341049,71.862068)">
            <path d="M141.879,49.492C147.398,52.25 154.301,56.195 155.875,62.898C157.453,69.012 158.441,94.25 154.102,100.754C150.555,105.289 139.117,105.488 123.344,105.488L120.387,105.488C117.23,105.488 113.684,105.883 109.934,106.277C108.16,108.246 105.793,109.824 102.441,109.824C100.867,109.824 99.289,109.035 97.711,108.051C94.359,108.445 92.586,108.641 91.402,108.641C91.203,108.641 90.613,109.43 90.219,109.824C89.23,111.008 87.852,112.781 85.289,113.375C84.699,113.57 84.305,113.57 83.711,113.57C80.949,113.57 77.992,112.191 75.824,110.613C73.062,108.445 71.488,105.684 71.289,102.926C71.289,100.359 72.078,98.191 74.051,96.418C77.402,93.262 83.121,92.672 86.078,93.066L86.867,93.066C86.473,92.473 86.273,91.883 86.078,91.488C86.078,91.449 85.996,91.199 85.852,90.77C84.586,86.98 78.633,69.172 84.305,58.363C87.656,51.66 99.484,44.957 106.977,43.969C107.176,42.785 107.766,41.605 108.754,40.816L108.754,40.027C108.754,39.434 108.754,39.039 108.555,38.449C108.359,37.266 107.766,35.887 107.371,34.309C105.793,29.773 104.02,24.254 104.02,18.141C104.02,7.098 110.922,0 121.57,0C132.215,0 139.117,7.098 139.117,18.141C139.117,24.254 136.949,29.969 135.172,34.309C136.16,34.309 137.145,34.703 138.133,35.293C140.102,36.676 141.285,38.645 141.285,41.012C141.285,42.785 140.695,44.168 139.906,45.152C140.891,46.336 141.68,47.715 141.879,49.492ZM133.004,17.941C133.004,10.055 128.863,5.719 121.371,5.719C113.879,5.719 109.543,10.254 109.543,18.141C109.543,23.465 111.117,28.395 112.5,32.535C113.09,33.914 113.484,35.492 113.879,36.871C114.074,37.465 114.273,38.055 114.273,38.645C116.246,38.645 118.215,39.434 120.781,41.012C122.555,39.434 125.117,37.66 127.68,36.281C128.074,35.492 128.468,34.504 128.863,33.52C130.636,29.574 133.004,23.66 133.004,17.941ZM98.695,101.148C99.684,102.137 100.867,103.121 102.246,103.121C103.035,103.121 104.414,101.938 105.992,99.965C112.301,92.277 122.75,71.969 124.922,68.023C124.922,68.023 128.468,59.941 129.062,58.758C129.651,57.574 133.398,55.801 135.172,54.418L135.766,53.828C136.75,52.645 136.355,51.266 136.355,51.266L136.355,50.672C136.16,49.098 134.582,47.32 133.793,46.73C133.004,45.941 131.031,45.941 131.031,45.941C131.031,45.941 131.23,45.746 131.625,45.547C132.215,44.957 133.203,44.363 133.793,43.969C134.781,43.379 136.75,42.195 135.172,41.012C135.172,40.816 134.977,40.816 134.781,40.816L134.188,40.816C133.992,40.816 133.793,41.012 133.598,41.012L133.398,41.012C132.215,41.406 130.641,42.391 129.062,43.379C127.09,44.758 125.117,46.137 123.934,47.125C123.934,47.32 123.738,47.32 123.539,47.52C123.344,47.715 123.145,47.715 123.145,47.914C122.75,48.309 122.355,48.504 121.965,48.504C121.176,48.504 120.188,47.715 119.203,47.125C118.215,46.336 116.047,45.152 114.668,44.957L113.879,44.957C113.484,45.152 113.09,45.352 113.09,45.547C112.695,46.137 112.895,46.926 113.289,47.32C113.484,47.715 113.879,47.914 113.879,47.914C115.457,48.504 117.23,49.887 118.609,51.266C119.992,52.844 120.781,55.207 120.387,56.195C119.793,57.773 117.625,62.109 117.43,62.309C115.258,66.25 112.301,71.375 109.738,75.91L106.387,81.629L105.598,83.012C105.598,83.207 105.402,83.402 105.402,83.402L105.203,83.602C105.203,83.797 105.008,83.797 104.809,83.996C104.613,84.191 104.414,84.191 104.414,84.191L103.625,84.191C103.625,83.996 103.43,83.996 103.43,83.996C102.836,83.602 102.441,83.012 102.246,82.418C102.246,82.223 102.047,82.223 102.047,82.023C100.273,77.293 97.512,69.406 98.695,67.234C100.273,63.883 103.035,67.234 103.035,67.234L104.02,70.785L104.613,72.953L106.387,69.602L106.977,68.617C108.754,65.461 110.527,62.309 111.906,59.547C111.906,59.348 112.105,59.152 112.301,58.953C112.695,58.363 113.484,56.785 114.273,55.602C114.074,55.602 114.074,55.406 114.074,55.406C113.484,54.812 108.754,50.672 108.16,49.887C102.641,50.477 91.797,56.391 89.43,61.125C85.684,68.223 88.84,81.434 90.809,87.152C91.203,87.938 91.402,88.727 91.598,89.121C91.598,89.172 91.602,89.223 91.609,89.266C91.668,89.414 91.73,89.562 91.797,89.715C91.746,89.617 91.699,89.531 91.652,89.449C91.723,89.66 91.859,89.84 91.992,90.109C92.551,91.41 93.109,93.062 93.664,94.07C93.766,94.121 93.766,94.25 93.766,94.25L93.965,94.445L94.16,94.645C94.16,94.84 94.359,95.039 94.359,95.039C94.754,95.434 94.949,95.824 95.148,96.219C95.738,96.812 96.922,99.375 98.695,101.148ZM123.145,98.586C129.651,98.785 147.203,98.785 149.371,96.219C151.539,93.656 151.934,71.574 149.961,63.883C148.977,60.137 144.637,57.379 140.496,55.207C139.906,56.195 138.922,57.18 137.934,57.969C136.949,58.758 135.961,59.348 134.977,59.941L133.203,61.125C132.215,63.293 130.246,67.828 129.651,69.012C127.68,74.926 124.922,80.645 119.793,89.32C127.68,88.332 133.793,87.348 133.793,87.348C134.781,87.152 135.766,87.938 135.961,88.926C136.16,89.91 135.371,90.898 134.387,91.094C134.387,91.094 126.496,92.078 117.23,93.461C116.246,95.039 115.258,96.613 114.273,98.391C114.273,98.57 114.273,98.75 114.121,98.781C116.273,98.586 118.23,98.586 119.992,98.586L123.145,98.586ZM85.484,105.488C86.473,104.105 88.246,101.938 91.402,102.137L91.797,102.137C90.809,100.953 89.824,99.574 89.23,98.391C86.273,98.785 85.484,98.785 84.895,98.586C82.727,98.391 79.375,98.98 77.797,100.359C77.203,100.754 77.008,101.348 77.008,102.137C77.008,103.121 77.797,104.305 79.176,105.289C80.949,106.867 83.121,107.262 83.711,107.066C84.305,106.867 84.699,106.277 85.484,105.488Z" style="fill:rgb(0,60,113);"/>
        </g>
        <g>
            <g transform="matrix(5.902224,0,0,5.711592,63.006169,411.78512)">
                <path d="M19.16,155.926C17.672,158.219 15.254,159.547 12.438,159.547C7.367,159.547 3.784,155.281 3.784,149.445C3.784,143.57 7.367,139.301 12.438,139.301C15.254,139.301 17.672,140.672 19.16,142.926L23.547,142.926C21.496,138.176 17.27,134.953 12.438,134.953C5.555,134.953 0,141.395 0,149.445C0,157.414 5.555,163.938 12.438,163.938C17.27,163.938 21.453,160.676 23.508,155.926L19.16,155.926Z" style="fill:rgb(0,60,113);fill-rule:nonzero;"/>
            </g>
            <g transform="matrix(5.902224,0,0,5.711592,63.006169,411.78512)">
                <path d="M38.762,134.953C31.918,134.953 26.363,141.395 26.363,149.445C26.363,157.414 31.918,163.938 38.762,163.938C45.645,163.938 51.199,157.414 51.199,149.445C51.199,141.395 45.645,134.953 38.762,134.953ZM38.762,159.547C33.73,159.547 30.148,155.281 30.148,149.445C30.148,143.57 33.73,139.301 38.762,139.301C43.832,139.301 47.418,143.57 47.418,149.445C47.418,155.281 43.832,159.547 38.762,159.547Z" style="fill:rgb(0,60,113);fill-rule:nonzero;"/>
            </g>
            <g transform="matrix(5.902224,0,0,5.711592,63.006169,411.78512)">
                <path d="M77.523,149.445L65.77,149.445L65.77,153.754L73.176,153.754L73.176,157.977C70.883,160.516 66.457,159.949 66.457,159.949C61.383,159.949 57.801,155.281 57.801,149.445C57.801,143.57 61.383,139.301 66.457,139.301C69.273,139.301 71.688,140.672 73.176,142.926L77.566,142.926C75.512,138.176 71.285,134.953 66.457,134.953C59.57,134.953 54.016,141.395 54.016,149.445C54.016,157.414 59.57,163.938 66.457,163.938C71.285,163.938 76.195,162.125 77.523,157.977L77.523,149.445Z" style="fill:rgb(0,60,113);fill-rule:nonzero;"/>
            </g>
            <g transform="matrix(5.902224,0,0,5.711592,63.006169,411.78512)">
                <path d="M80.383,135.355L84.406,135.356L84.406,163.532L80.383,163.532L80.383,135.355Z" style="fill:rgb(0,60,113);fill-rule:nonzero;"/>
            </g>
            <g transform="matrix(5.902224,0,0,5.711592,63.006169,411.78512)">
                <path d="M105.941,135.355L85.816,135.355L85.816,139.383L93.867,139.383L93.867,163.531L97.891,163.531L97.891,139.383L105.941,139.383L105.941,135.355Z" style="fill:rgb(0,60,113);fill-rule:nonzero;"/>
            </g>
            <g transform="matrix(5.902224,0,0,5.711592,63.006169,411.78512)">
                <path d="M122.445,163.531L126.711,163.531L116.449,135.355L110.73,135.355L100.508,163.531L104.773,163.531L107.793,155.281L119.426,155.281L122.445,163.531ZM109.242,151.258L113.59,139.301L117.977,151.258L109.242,151.258Z" style="fill:rgb(0,60,113);fill-rule:nonzero;"/>
            </g>
            <g transform="matrix(5.902224,0,0,5.711592,63.006169,411.78512)">
                <path d="M146.836,135.355L126.711,135.355L126.711,139.383L134.762,139.383L134.762,163.531L138.785,163.531L138.785,139.383L146.836,139.383L146.836,135.355Z" style="fill:rgb(0,60,113);fill-rule:nonzero;"/>
            </g>
            <g transform="matrix(5.902224,0,0,5.711592,63.006169,411.323509)">
                <path d="M148.246,135.355L152.269,135.356L152.269,163.532L148.246,163.532L148.246,135.355Z" style="fill:rgb(0,60,113);fill-rule:nonzero;"/>
            </g>
            <g transform="matrix(5.902224,0,0,5.711592,63.006169,411.78512)">
                <path d="M167.484,134.953C160.645,134.953 155.09,141.395 155.09,149.445C155.09,157.414 160.645,163.938 167.484,163.938C174.371,163.938 179.926,157.414 179.926,149.445C179.926,141.395 174.371,134.953 167.484,134.953ZM167.484,159.547C162.453,159.547 158.871,155.281 158.871,149.445C158.871,143.57 162.453,139.301 167.484,139.301C172.559,139.301 176.141,143.57 176.141,149.445C176.141,155.281 172.559,159.547 167.484,159.547Z" style="fill:rgb(0,60,113);fill-rule:nonzero;"/>
            </g>
            <g transform="matrix(5.902224,0,0,5.711592,63.006169,411.78512)">
                <path d="M202.867,135.355L202.867,156.852L186.766,135.355L182.742,135.355L182.742,163.531L186.766,163.531L186.766,142.078L202.867,163.531L206.891,163.531L206.891,135.355L202.867,135.355Z" style="fill:rgb(0,60,113);fill-rule:nonzero;"/>
            </g>
            <g transform="matrix(5.902224,0,0,5.711592,63.006169,411.78512)">
                <path d="M219.328,147.715C219.328,147.715 219.047,147.676 218.926,147.676C216.715,147.555 214.137,145.863 214.137,143.406C214.137,140.832 216.914,139.141 219.328,139.141C222.59,139.141 224.121,142.039 224.121,142.039L228.508,142.039C227.781,137.852 223.957,134.953 219.328,134.953C214.137,134.953 210.191,138.617 210.191,143.406C210.191,148.035 213.816,150.934 218.645,151.176L219.008,151.176C221.262,151.297 223.84,153.027 223.84,155.441C223.84,158.02 221.062,159.75 218.645,159.75C215.344,159.75 213.855,156.852 213.855,156.852L209.711,156.852C210.434,160.996 214.016,163.938 218.645,163.938C223.84,163.938 227.781,160.273 227.781,155.441C227.781,150.855 224.16,147.957 219.328,147.715Z" style="fill:rgb(0,60,113);fill-rule:nonzero;"/>
            </g>
        </g>
    </g>
</svg>

